<svg width="55" height="40" viewBox="0 0 55 40" fill="none" xmlns="http://www.w3.org/2000/svg">
<path d="M21.9259 3.06316C21.5046 1.89197 21.0794 0.711122 21.0717 0.695661C20.8688 0.241488 20.3991 -0.0445454 19.9044 0.0057035C19.5913 0.030828 12.1834 0.668604 7.43684 4.48559C4.95532 6.77772 0 20.1787 0 31.765C0 31.9698 0.0521817 32.1689 0.154612 32.3467C3.57734 38.3573 12.9082 39.9304 15.0341 39.9981C15.0476 40 15.0592 40 15.0708 40C15.4458 40 15.7975 39.8203 16.0217 39.5168L18.3215 36.4014C14.5219 35.8235 13.8359 35.0698 13.6754 34.9519C12.8173 34.3199 12.1834 33.4348 12.9526 32.3177C13.544 31.4499 14.7848 31.1639 15.7357 31.6529C16.7097 32.1071 19.3169 33.5681 27.0571 33.5295C34.7433 33.5063 38.1177 31.8964 38.166 31.8616C39.457 31.2799 40.4639 31.5195 41.092 32.3815C41.84 33.5546 41.3066 34.3489 40.4523 34.979C40.2919 35.0969 39.9035 35.4273 35.8217 36.3937L38.0926 39.5149C38.3148 39.8203 38.6685 39.9981 39.0434 39.9981C39.057 39.9981 39.0686 39.9981 39.0802 39.9961C41.208 39.9285 50.5388 38.3553 53.9596 32.3448C54.0621 32.167 54.1143 31.9679 54.1143 31.763C54.1143 20.1787 49.1589 6.77772 46.6156 4.43534C41.9308 0.670536 34.523 0.0327606 34.2099 0.0057035C33.7151 -0.0368148 33.2455 0.24342 33.0425 0.695661C33.0348 0.711122 32.6212 1.9113 32.2212 3.06896C32.2212 3.06896 29.069 2.60705 27.0571 2.60705C25.0452 2.60705 21.9259 3.06316 21.9259 3.06316ZM19.3265 27.7315C17.1909 27.7315 15.4612 25.1553 15.4612 21.9742C15.4612 18.793 17.1909 16.2168 19.3265 16.2168C21.4698 15.8979 23.1454 18.793 23.1918 21.9742C23.1918 25.1553 21.4621 27.7315 19.3265 27.7315ZM34.7877 27.7315C32.6522 27.7315 30.9224 25.1379 30.9224 21.9394C30.9224 18.7408 32.6522 16.1472 34.7877 16.1472C36.9233 16.1472 38.653 18.7408 38.653 21.9394C38.653 25.1379 36.9233 27.7315 34.7877 27.7315Z" fill="white"/>
</svg>
