<svg width="45" height="45" viewBox="0 0 45 45" fill="none" xmlns="http://www.w3.org/2000/svg">
<path d="M13.1213 0C5.88571 0 0 5.89116 0 13.1287V31.8787C0 39.1143 5.89116 45 13.1287 45H31.8787C39.1143 45 45 39.1088 45 31.8713V13.1213C45 5.88571 39.1088 0 31.8713 0H13.1213ZM35.625 7.5C36.66 7.5 37.5 8.34 37.5 9.375C37.5 10.41 36.66 11.25 35.625 11.25C34.59 11.25 33.75 10.41 33.75 9.375C33.75 8.34 34.59 7.5 35.625 7.5ZM22.5 11.25C28.7044 11.25 33.75 16.2956 33.75 22.5C33.75 28.7044 28.7044 33.75 22.5 33.75C16.2956 33.75 11.25 28.7044 11.25 22.5C11.25 16.2956 16.2956 11.25 22.5 11.25ZM22.5 15C20.5109 15 18.6032 15.7902 17.1967 17.1967C15.7902 18.6032 15 20.5109 15 22.5C15 24.4891 15.7902 26.3968 17.1967 27.8033C18.6032 29.2098 20.5109 30 22.5 30C24.4891 30 26.3968 29.2098 27.8033 27.8033C29.2098 26.3968 30 24.4891 30 22.5C30 20.5109 29.2098 18.6032 27.8033 17.1967C26.3968 15.7902 24.4891 15 22.5 15Z" fill="white"/>
</svg>
